<svg width="65" height="64" viewBox="0 0 65 64" fill="none" xmlns="http://www.w3.org/2000/svg">
<rect x="3.10498" y="2.5" width="59" height="59" rx="29.5" fill="#F2F4F7"/>
<rect x="3.10498" y="2.5" width="59" height="59" rx="29.5" stroke="#F9FAFB" stroke-width="5"/>
<path opacity="0.5" d="M48.605 46C48.605 47.1046 41.4415 48 32.605 48C23.7684 48 16.605 47.1046 16.605 46C16.605 44.8954 23.7684 44 32.605 44C41.4415 44 48.605 44.8954 48.605 46Z" fill="#98A2B3"/>
<path d="M32.9995 42C32.0767 42 31.1551 41.6496 30.4507 40.9499L29.5746 40.0739C29.235 39.7354 28.7802 39.5482 28.2978 39.547H27.0653C25.0733 39.547 23.452 37.9257 23.452 35.9336V34.6999C23.4508 34.2187 23.2636 33.7638 22.924 33.4218L22.0624 32.5614C20.6511 31.1585 20.6451 28.8651 22.0492 27.4526L22.9252 26.5753C23.2636 26.2357 23.4508 25.7809 23.452 25.2985V24.0672C23.452 22.0738 25.0733 20.4525 27.0653 20.4525H28.299C28.7802 20.4525 29.2338 20.2653 29.5758 19.9233L30.4387 19.0628C31.8415 17.6515 34.1336 17.6443 35.5472 19.0496L36.4233 19.9257C36.7641 20.2653 37.2177 20.4525 37.6989 20.4525H38.9326C40.9246 20.4525 42.5459 22.0738 42.5459 24.0672V25.2997C42.5471 25.7809 42.7343 26.2357 43.0739 26.5777L43.9356 27.4394C44.6184 28.1187 44.9964 29.0235 45 29.9896C45.0024 30.9496 44.6328 31.8533 43.9595 32.5362C43.9475 32.5482 43.9367 32.5614 43.9247 32.5722L43.0727 33.4242C42.7343 33.7638 42.5471 34.2187 42.5459 34.7011V35.9336C42.5459 37.9257 40.9246 39.547 38.9326 39.547H37.6989C37.2177 39.5482 36.7629 39.7354 36.4221 40.0751L35.5592 40.9367C34.856 41.6448 33.9272 42 32.9995 42Z" fill="#E4002B"/>
<path fill-rule="evenodd" clip-rule="evenodd" d="M30.7892 27.7963C30.5912 27.9943 30.3344 28.1011 30.05 28.1011C29.7836 28.1011 29.522 27.9919 29.312 27.7951C29.1128 27.5971 29 27.3259 29 27.0511C29 26.7895 29.1104 26.5207 29.3048 26.3131C29.4116 26.2051 29.5388 26.1234 29.666 26.0802C30.0284 25.9146 30.5096 26.0118 30.7952 26.3119C30.8972 26.4139 30.9752 26.5255 31.0268 26.6419C31.0832 26.7667 31.112 26.9083 31.112 27.0511C31.112 27.3367 30.998 27.6019 30.7892 27.7963ZM36.9663 26.3069C36.5571 25.8989 35.8911 25.8989 35.4819 26.3069L29.3138 32.4749C28.9046 32.8841 28.9046 33.5501 29.3138 33.9605C29.513 34.1585 29.7758 34.2677 30.0567 34.2677C30.3375 34.2677 30.6003 34.1585 30.7983 33.9605L36.9663 27.7925C37.3755 27.3821 37.3755 26.7173 36.9663 26.3069ZM36.6245 32.2519C36.2357 32.0887 35.7749 32.1775 35.4677 32.4847C35.4041 32.5591 35.3141 32.6743 35.2529 32.8099C35.1881 32.9563 35.1797 33.1135 35.1797 33.2191C35.1797 33.3247 35.1881 33.4807 35.2529 33.6271C35.3129 33.7615 35.3849 33.8707 35.4797 33.9655C35.6969 34.1671 35.9489 34.2691 36.2297 34.2691C36.4961 34.2691 36.7577 34.1611 36.9725 33.9607C37.1633 33.7699 37.2677 33.5059 37.2677 33.2191C37.2677 32.9311 37.1633 32.6683 36.9713 32.4763C36.8657 32.3719 36.7385 32.2903 36.6245 32.2519Z" fill="white"/>
<path d="M27.2511 13.7786C27.6946 14.1078 28.3209 14.0152 28.6501 13.5718C28.9793 13.1283 28.8867 12.502 28.4433 12.1727C27.9999 11.8435 27.3735 11.9361 27.0443 12.3796C26.7151 12.823 26.8077 13.4494 27.2511 13.7786Z" fill="#EE9D0D"/>
<path d="M23.3352 17.6979L21.7798 17.9439L19.7681 14.1147L21.3232 13.8685L23.3352 17.6979Z" fill="#101828"/>
<path d="M50.0253 37.9931L48.8968 39.0914L45.0444 37.1243L46.1727 36.0261L50.0253 37.9931Z" fill="#101828"/>
<path d="M19.2912 22.651L18.8545 24.1639L14.5335 24.3621L14.9701 22.8493L19.2912 22.651Z" fill="#EE9D0D"/>
<path d="M47.6886 25.1327C48.1706 24.8631 48.3429 24.2538 48.0733 23.7718C47.8037 23.2897 47.1944 23.1175 46.7124 23.3871C46.2304 23.6567 46.0581 24.266 46.3277 24.748C46.5973 25.23 47.2066 25.4022 47.6886 25.1327Z" fill="#101828"/>
<path d="M40.9813 11.4629L42.1823 12.4813L40.5924 16.504L39.3914 15.4859L40.9813 11.4629Z" fill="#EE9D0D"/>
<path d="M49.3028 16.8206L48.5106 18.1815L44.2716 17.3209L45.0635 15.9601L49.3028 16.8206Z" fill="#E4002B"/>
<path d="M19.2254 35.9869L19.6018 37.5159L15.9561 39.8437L15.5796 38.3149L19.2254 35.9869Z" fill="#E4002B"/>
</svg>
