<svg width="65" height="64" viewBox="0 0 65 64" fill="none" xmlns="http://www.w3.org/2000/svg">
<rect x="2.20508" y="2" width="60" height="60" rx="30" fill="#F2F4F7"/>
<rect x="2.20508" y="2" width="60" height="60" rx="30" stroke="#F9FAFB" stroke-width="4"/>
<path opacity="0.5" d="M48.2051 46C48.2051 47.1046 41.0416 48 32.2051 48C23.3685 48 16.2051 47.1046 16.2051 46C16.2051 44.8954 23.3685 44 32.2051 44C41.0416 44 48.2051 44.8954 48.2051 46Z" fill="#98A2B3"/>
<path d="M27.5363 24.204C27.5873 23.8276 27.49 23.4458 27.2657 23.1428C27.0414 22.8397 26.7085 22.6402 26.3402 22.588C25.972 22.5358 25.5985 22.6353 25.302 22.8646C25.0055 23.0938 24.8103 23.4341 24.7592 23.8105C24.5803 25.126 24.8781 26.4629 25.5964 27.5697C25.6983 27.7264 25.8294 27.8612 25.9821 27.9662C26.1349 28.0712 26.3065 28.1444 26.487 28.1817C26.6674 28.2189 26.8533 28.2195 27.034 28.1833C27.2147 28.1471 27.3866 28.0749 27.54 27.9708C27.6934 27.8667 27.8252 27.7327 27.928 27.5766C28.0307 27.4204 28.1023 27.2451 28.1388 27.0606C28.1752 26.8761 28.1758 26.6861 28.1404 26.5014C28.105 26.3168 28.0343 26.141 27.9325 25.9842C27.5924 25.4601 27.4515 24.8269 27.5363 24.204Z" fill="#101828"/>
<path d="M20.56 24.3911C20.0644 24.3911 19.589 24.5924 19.2385 24.9506C18.8881 25.3088 18.6912 25.7947 18.6912 26.3013C18.6912 26.8079 18.8881 27.2938 19.2385 27.652C19.589 28.0102 20.0644 28.2115 20.56 28.2115C21.0556 28.2115 21.531 28.0102 21.8815 27.652C22.2319 27.2938 22.4288 26.8079 22.4288 26.3013C22.4288 25.7947 22.2319 25.3088 21.8815 24.9506C21.531 24.5924 21.0556 24.3911 20.56 24.3911Z" fill="#E4002B"/>
<path fill-rule="evenodd" clip-rule="evenodd" d="M32.4059 19.3637C32.2682 19.2386 32.1077 19.1426 31.9337 19.0809V19.079C31.7594 19.0173 31.575 18.9913 31.3909 19.0026C31.2069 19.0138 31.0268 19.0621 30.861 19.1446C30.6952 19.2271 30.5469 19.3422 30.4247 19.4834C30.3026 19.6246 30.2088 19.789 30.1489 19.9673C29.3781 22.2368 29.4803 24.721 30.4349 26.9164C30.5853 27.2639 30.8646 27.5361 31.2114 27.6732C31.5582 27.8102 31.9441 27.8008 32.2841 27.647C32.6241 27.4933 32.8904 27.2078 33.0245 26.8533C33.1585 26.4988 33.1493 26.1045 32.9989 25.7569C32.3316 24.2244 32.2601 22.4896 32.7989 20.9051C32.8594 20.7273 32.885 20.539 32.8743 20.3511C32.8635 20.1631 32.8166 19.9791 32.7363 19.8097C32.6559 19.6403 32.5437 19.4887 32.4059 19.3637ZM38.5344 26.8916H38.5325C39.5472 27.1587 40.3942 27.9669 40.7247 28.9832L45.0473 40.8777C45.4129 41.9967 46.0175 44.1644 45.1849 45C44.3633 45.8246 42.2157 45.2174 41.119 44.8202L41.1059 44.8145L29.4593 40.3772C28.4762 40.0192 27.7074 39.1387 27.4708 38.0997C27.2342 37.0608 27.5434 35.9237 28.2707 35.1587L28.2801 35.1491L35.5891 27.6785L35.6115 27.6556C36.3813 26.9185 37.513 26.6226 38.5344 26.8916Z" fill="#E4002B"/>
<path d="M25.2115 33.8063C24.6225 33.6694 24.0048 33.7599 23.4772 34.0604C23.1525 34.2455 22.7692 34.2913 22.4116 34.1876C22.0539 34.0839 21.7512 33.8392 21.57 33.5074C21.3889 33.1755 21.3441 32.7838 21.4456 32.4182C21.547 32.0526 21.7864 31.7432 22.1111 31.5581C23.2429 30.9129 24.5682 30.7184 25.8319 31.0118C26.1945 31.0959 26.5095 31.3237 26.7077 31.6452C26.9059 31.9667 26.971 32.3555 26.8887 32.7261C26.8065 33.0967 26.5835 33.4187 26.269 33.6213C25.9544 33.8238 25.574 33.8904 25.2115 33.8063Z" fill="#101828"/>
<path d="M35.0472 40C36.1524 37 38.7314 35.875 40.2051 35.875L39.4682 34C35.6367 34.3 33.5735 37.75 33.2051 39.25L35.0472 40Z" fill="white"/>
</svg>
