<svg width="65" height="64" viewBox="0 0 65 64" fill="none" xmlns="http://www.w3.org/2000/svg">
<rect x="3.30493" y="2.5" width="59" height="59" rx="29.5" fill="#F2F4F7"/>
<rect x="3.30493" y="2.5" width="59" height="59" rx="29.5" stroke="#F9FAFB" stroke-width="5"/>
<path opacity="0.5" d="M48.8049 46C48.8049 47.1046 41.6415 48 32.8049 48C23.9684 48 16.8049 47.1046 16.8049 46C16.8049 44.8954 23.9684 44 32.8049 44C41.6415 44 48.8049 44.8954 48.8049 46Z" fill="#98A2B3"/>
<path fill-rule="evenodd" clip-rule="evenodd" d="M40.6753 19.7608C40.4177 20.1245 40.4361 20.5916 40.6783 20.9363L39.3088 22.8727C39.4975 22.9432 39.6489 23.0341 39.8103 23.144L40.5767 23.6937C40.7104 23.7896 40.8362 23.9124 40.9469 24.0205L40.9609 24.0341L42.3195 22.1135C42.7133 22.2308 43.1571 22.0834 43.4081 21.7209C43.5211 21.5601 43.5857 21.3693 43.5937 21.1718C43.6017 20.9742 43.553 20.7786 43.4534 20.6088C43.3538 20.4391 43.2076 20.3027 43.0329 20.2162C42.8582 20.1298 42.6626 20.0972 42.4699 20.1223C42.4283 19.9292 42.3323 19.7526 42.1936 19.6142C42.0548 19.4758 41.8794 19.3817 41.6889 19.3433C41.4984 19.3049 41.3009 19.324 41.1209 19.3982C40.9408 19.4723 40.786 19.5984 40.6753 19.7608Z" fill="#EE9D0D"/>
<path d="M32.3216 27.3425C31.9587 27.8659 31.7161 28.4657 31.6116 29.0974C31.5072 29.7291 31.5436 30.3767 31.7182 30.9922C31.8928 31.6077 32.201 32.1754 32.6202 32.6532C33.0394 33.1311 33.5588 33.5069 34.14 33.7529C35.6183 34.4122 37.3944 34.1059 38.5841 32.9899C39.6163 32.0261 40.0551 30.7312 39.9592 29.4891C39.8941 28.5874 40.0834 27.7031 40.5853 26.9782L40.6016 26.9545C41.2344 26.0405 41.0321 24.8517 40.1894 24.2532L39.423 23.7035C39.0174 23.4128 38.515 23.2979 38.0263 23.3841C37.5376 23.4703 37.1025 23.7505 36.8166 24.1631C36.2874 24.9275 35.5034 25.4324 34.6034 25.6949C33.7166 25.955 32.901 26.5139 32.3216 27.3425Z" fill="#EE9D0D"/>
<path fill-rule="evenodd" clip-rule="evenodd" d="M26.2997 29.7653C27.9585 30.2179 30.3273 30.5146 32.9987 30.5146C35.6701 30.5146 38.0377 30.2179 39.6965 29.7653C41.7503 29.2058 41.9291 28.6005 39.6965 27.992C38.0389 27.5394 35.6713 27.2427 32.9987 27.2427C30.3273 27.2427 27.9585 27.5394 26.2997 27.992C24.0771 28.5973 24.2771 29.2135 26.2997 29.7653ZM32.9987 25.0615C30.1461 25.0615 27.5147 25.3756 25.5546 25.91C23.6108 26.4401 21.3932 27.4958 21.7632 29.5897L23.682 40.4762C24.1046 42.8744 26.0621 45.0131 28.991 45.457C30.1936 45.6391 31.5874 45.7831 32.9987 45.7831C34.3427 45.7733 35.6834 45.6642 37.0064 45.457C39.9352 45.0142 41.8916 42.8744 42.3153 40.4762L44.2342 29.5897C44.6042 27.4958 42.3866 26.4401 40.4428 25.91C38.4827 25.3756 35.8501 25.0615 32.9987 25.0615Z" fill="#E4002B"/>
<mask id="mask0_10700_27450" style="mask-type:alpha" maskUnits="userSpaceOnUse" x="21" y="25" width="24" height="21">
<path fill-rule="evenodd" clip-rule="evenodd" d="M26.2992 29.7653C27.958 30.2179 30.3268 30.5146 32.9982 30.5146C35.6696 30.5146 38.0372 30.2179 39.696 29.7653C41.7498 29.2058 41.9286 28.6005 39.696 27.992C38.0384 27.5394 35.6708 27.2427 32.9982 27.2427C30.3268 27.2427 27.958 27.5394 26.2992 27.992C24.0766 28.5973 24.2766 29.2135 26.2992 29.7653ZM32.9982 25.0615C30.1456 25.0615 27.5142 25.3756 25.5541 25.91C23.6103 26.4401 21.3927 27.4958 21.7627 29.5897L23.6816 40.4762C24.1041 42.8744 26.0617 45.0131 28.9905 45.457C30.1931 45.6391 31.5869 45.7831 32.9982 45.7831C34.3423 45.7733 35.6829 45.6642 37.0059 45.457C39.9348 45.0142 41.8911 42.8744 42.3149 40.4762L44.2337 29.5897C44.6037 27.4958 42.3861 26.4401 40.4423 25.91C38.4822 25.3756 35.8496 25.0615 32.9982 25.0615Z" fill="#E4002B"/>
</mask>
<g mask="url(#mask0_10700_27450)">
<rect x="28.9905" y="40.563" width="2.09992" height="7.50017" fill="white"/>
<rect x="32.1399" y="40.563" width="2.09992" height="7.50017" fill="white"/>
<rect x="35.2903" y="40.563" width="2.09992" height="7.50017" fill="white"/>
</g>
<path d="M32.3216 27.3425C31.9587 27.8659 31.716 28.4657 31.6116 29.0974C31.5072 29.7291 31.5436 30.3767 31.7182 30.9922C31.8928 31.6077 32.201 32.1754 32.6202 32.6532C33.0394 33.1311 33.5588 33.5069 34.14 33.7529C35.6183 34.4122 37.3944 34.1059 38.5841 32.9899C39.6163 32.0261 40.0551 30.7312 39.9592 29.4891C39.8941 28.5874 40.0834 27.7031 40.5853 26.9782L40.6016 26.9545C41.2344 26.0405 41.0321 24.8517 40.1894 24.2532L39.423 23.7035C39.0174 23.4128 38.515 23.2979 38.0263 23.3841C37.5376 23.4703 37.1025 23.7505 36.8166 24.1631C36.2874 24.9275 35.5034 25.4324 34.6034 25.6949C33.7166 25.955 32.901 26.5139 32.3216 27.3425Z" fill="#EE9D0D"/>
<path fill-rule="evenodd" clip-rule="evenodd" d="M26.6462 29.7961C26.6462 29.7961 26.0229 30.0307 26.1376 30.5527C26.2523 31.0748 26.3981 31.7531 27.5724 32.1397C29.195 32.6738 32.3984 32.2516 33.8993 31.192C35.4003 30.1325 35.2704 29.5417 35.2068 28.9924C35.1432 28.443 35.2503 28.3024 34.6104 28.0455C33.9706 27.7887 26.6462 29.7961 26.6462 29.7961Z" fill="#D89A4E"/>
<path fill-rule="evenodd" clip-rule="evenodd" d="M33.6404 30.0121C34.2462 29.5844 34.5861 29.2331 34.7721 28.9301C33.9376 28.7468 26.7121 29.0651 26.7121 29.0651C26.7121 29.0651 26.5695 30.1794 26.526 30.2012C26.6771 30.2876 27.101 30.8897 27.3134 30.9596C28.936 31.4938 32.1394 31.0716 33.6404 30.0121Z" fill="#C68744"/>
<path fill-rule="evenodd" clip-rule="evenodd" d="M26.2132 28.5173L26.1833 29.3803C26.1833 29.3803 26.1214 29.5342 26.3014 29.9177C26.4814 30.3013 27.258 30.8342 28.6529 30.723C30.0477 30.6119 30.3281 30.3218 30.4656 30.0345C30.6032 29.7471 30.4474 29.2341 30.4474 29.2341L30.6655 29.108C30.6655 29.108 30.7388 30.0105 30.8864 30.0758C31.0339 30.141 33.2176 30.6188 34.0903 29.7625C34.963 28.9062 35.0355 28.4664 34.6915 27.6692C34.3475 26.872 26.2132 28.5173 26.2132 28.5173Z" fill="#C0243C"/>
<path fill-rule="evenodd" clip-rule="evenodd" d="M26.1492 29.0511C26.1492 29.0511 25.9125 29.9964 28.0772 30.1265C30.242 30.2565 30.4473 29.2342 30.4473 29.2342L30.8931 29.1753C30.8931 29.1753 30.8889 29.743 32.4301 29.5802C33.9713 29.4173 34.7696 28.3579 34.6637 27.5452C34.5579 26.7326 26.1492 29.0511 26.1492 29.0511Z" fill="#FF788B"/>
<path fill-rule="evenodd" clip-rule="evenodd" d="M26.0053 28.2262L25.7155 28.1327C25.7155 28.1327 25.8848 29.2467 26.0482 29.3541C26.2116 29.4615 29.1879 29.9018 31.975 29.0155C34.7622 28.1294 34.7476 27.3102 34.7749 27.1746C34.8022 27.0391 34.5936 26.422 34.5936 26.422L26.0053 28.2262Z" fill="#C17036"/>
<path fill-rule="evenodd" clip-rule="evenodd" d="M25.6718 27.7693C25.6718 27.7693 25.5658 28.0924 25.952 28.4505C26.3382 28.8086 31.4757 28.3553 32.9626 27.5732C34.4494 26.7912 34.7284 26.7039 34.5432 26.1582C34.3581 25.6126 31.0965 25.9516 29.7453 26.418C28.3941 26.8844 25.6718 27.7693 25.6718 27.7693Z" fill="#CB7E41"/>
<path fill-rule="evenodd" clip-rule="evenodd" d="M25.6498 26.3209C25.6498 26.3209 25.1778 27.4779 25.3995 27.997C25.6212 28.5162 25.9022 27.6531 26.3948 27.9357C26.8872 28.2184 27.0369 28.6545 27.5096 28.2965C27.9824 27.9386 27.7978 27.5882 28.3765 27.7738C28.9553 27.9592 29.3327 28.6972 30.2268 27.9925C31.121 27.2878 31.5236 26.6717 32.0638 26.8656C32.6041 27.0596 33.3054 27.3745 33.9209 26.8092C34.5364 26.244 35.0457 25.6239 34.1521 24.8626C33.2585 24.1014 25.6498 26.3209 25.6498 26.3209Z" fill="#9AC168"/>
<mask id="mask1_10700_27450" style="mask-type:luminance" maskUnits="userSpaceOnUse" x="24" y="21" width="11" height="8">
<path fill-rule="evenodd" clip-rule="evenodd" d="M24.2034 23.229L33.7859 21.1228L34.8408 25.9222L25.2582 28.0283L24.2034 23.229Z" fill="white"/>
</mask>
<g mask="url(#mask1_10700_27450)">
<path fill-rule="evenodd" clip-rule="evenodd" d="M24.9735 26.0785C24.9735 26.0785 25.1059 23.4 28.3355 22.3613C32.0882 21.1543 33.9193 23.1698 34.4493 24.2734C34.9795 25.3771 33.3404 26.3278 29.6013 27.066C25.8622 27.8042 24.6861 27.3857 24.9735 26.0785Z" fill="#EFB562"/>
</g>
<mask id="mask2_10700_27450" style="mask-type:luminance" maskUnits="userSpaceOnUse" x="24" y="21" width="11" height="8">
<path fill-rule="evenodd" clip-rule="evenodd" d="M24.313 23.7283L33.4408 21.722L34.3859 26.022L25.2581 28.0283L24.313 23.7283Z" fill="white"/>
</mask>
<g mask="url(#mask2_10700_27450)">
<path fill-rule="evenodd" clip-rule="evenodd" d="M26.8119 25.297C26.3464 24.508 26.4072 23.7931 26.6559 23.2133C25.0555 24.4258 24.9733 26.0784 24.9733 26.0784C24.6859 27.3856 25.862 27.8041 29.6012 27.0659C32.0653 26.5794 33.6171 26.0007 34.2374 25.3466C32.319 26.0659 27.8379 27.0359 26.8119 25.297Z" fill="#D89A4E"/>
</g>
<path fill-rule="evenodd" clip-rule="evenodd" d="M34.7151 25.3217L34.7151 25.3216C34.7146 25.3218 34.7142 25.3221 34.7137 25.3223C34.714 25.3222 34.7151 25.3217 34.7151 25.3217Z" fill="#C17036"/>
<path d="M24.9998 29.3021C24.9998 29.3021 26.9998 30.402 32.9998 30.451C38.9998 30.5 40.9998 29.3413 40.9998 29.3413V36.0002H24.9998V29.3021Z" fill="#E4002B"/>
<path d="M31.1749 18.022C31.1749 18.022 30.65 16.7906 31.5852 15.8329C32.5204 14.8752 31.9265 14.0087 31.9265 14.0087" stroke="#101828" stroke-width="1.4" stroke-linecap="round"/>
<path d="M34.6619 20.1962C34.6619 20.1962 33.4119 18.0311 34.8939 16.5981C36.376 15.1651 35.126 13 35.126 13" stroke="#101828" stroke-width="1.4" stroke-linecap="round"/>
</svg>
